<mxfile host="Electron" modified="2023-08-15T09:29:09.016Z" agent="Mozilla/5.0 (Windows NT 10.0; Win64; x64) AppleWebKit/537.36 (KHTML, like Gecko) draw.io/21.6.5 Chrome/114.0.5735.243 Electron/25.3.1 Safari/537.36" etag="I5VDrMLnSGwaG2niSSGf" version="21.6.5" type="device">
  <diagram name="Page-1" id="b5b7bab2-c9e2-2cf4-8b2a-24fd1a2a6d21">
    <mxGraphModel dx="2495" dy="965" grid="1" gridSize="10" guides="1" tooltips="1" connect="1" arrows="1" fold="1" page="1" pageScale="1" pageWidth="827" pageHeight="1169" background="none" math="0" shadow="0">
      <root>
        <mxCell id="0" />
        <mxCell id="1" parent="0" />
        <mxCell id="5HlFLYyAjReFzfFvpWD5-10" value="" style="rounded=1;whiteSpace=wrap;html=1;" parent="1" vertex="1">
          <mxGeometry x="1340" y="205" width="350" height="715" as="geometry" />
        </mxCell>
        <mxCell id="shywv9QNYz3xRIldoQkV-1" value="3DiPluginDockWidget" style="swimlane;fontStyle=0;childLayout=stackLayout;horizontal=1;startSize=26;fillColor=none;horizontalStack=0;resizeParent=1;resizeParentMax=0;resizeLast=0;collapsible=1;marginBottom=0;" parent="1" vertex="1">
          <mxGeometry x="70" y="260" width="210" height="260" as="geometry" />
        </mxCell>
        <mxCell id="shywv9QNYz3xRIldoQkV-2" value="Â Â Â Â Â Â Â Â Â Â Â Â Â Â Â Â Â Â Â Â Â Â Â Â ðŸ—²Â grid_file_selected&#xa;&#xa;Â Â Â Â Â Â Â Â Â Â Â Â Â Â Â Â Â Â Â Â Â Â Â Â ðŸ—² result_file_selected&#xa;&#xa;" style="text;strokeColor=none;fillColor=none;align=left;verticalAlign=top;spacingLeft=4;spacingRight=4;overflow=hidden;rotatable=0;points=[[0,0.5],[1,0.5]];portConstraint=eastwest;" parent="shywv9QNYz3xRIldoQkV-1" vertex="1">
          <mxGeometry y="26" width="210" height="84" as="geometry" />
        </mxCell>
        <mxCell id="shywv9QNYz3xRIldoQkV-3" value="Â Â Â Â Â Â Â Â Â Â Â Â Â Â Â Â ðŸ—²Â grid_removal_selected&#xa;Â Â Â Â Â Â Â Â Â Â Â Â Â Â Â Â ðŸ—² result_removal_selected" style="text;strokeColor=none;fillColor=none;align=left;verticalAlign=top;spacingLeft=4;spacingRight=4;overflow=hidden;rotatable=0;points=[[0,0.5],[1,0.5]];portConstraint=eastwest;fontColor=#FF3333;" parent="shywv9QNYz3xRIldoQkV-1" vertex="1">
          <mxGeometry y="110" width="210" height="150" as="geometry" />
        </mxCell>
        <mxCell id="shywv9QNYz3xRIldoQkV-5" value="3DiPluginModel" style="swimlane;fontStyle=0;childLayout=stackLayout;horizontal=1;startSize=26;fillColor=none;horizontalStack=0;resizeParent=1;resizeParentMax=0;resizeLast=0;collapsible=1;marginBottom=0;" parent="1" vertex="1">
          <mxGeometry x="1040" y="270" width="190" height="330" as="geometry" />
        </mxCell>
        <mxCell id="shywv9QNYz3xRIldoQkV-6" value="â—‹ add_grid&#xa;Â Â Â Â Â Â Â Â Â Â Â Â Â Â Â Â Â Â Â Â ðŸ—²Â grid_added&#xa;&#xa;Â  Â  Â  Â  Â  Â  Â  Â  Â  Â  ðŸ—²Â grid_changed&#xa;&#xa;â—‹ add_result&#xa;Â Â Â Â Â Â Â Â Â Â Â Â Â Â Â Â Â Â Â Â ðŸ—² result_added&#xa;&#xa;Â  Â  Â  Â  Â  Â  Â  Â  Â  Â  ðŸ—² result_checked&#xa;Â  Â  Â  Â  Â  Â  Â  Â  Â  Â  ðŸ—² result_changed&#xa;" style="text;strokeColor=none;fillColor=none;align=left;verticalAlign=top;spacingLeft=4;spacingRight=4;overflow=hidden;rotatable=0;points=[[0,0.5],[1,0.5]];portConstraint=eastwest;" parent="shywv9QNYz3xRIldoQkV-5" vertex="1">
          <mxGeometry y="26" width="190" height="164" as="geometry" />
        </mxCell>
        <mxCell id="shywv9QNYz3xRIldoQkV-7" value="â—‹ remove_grid&#xa;Â  Â  Â  Â  Â  Â  Â  Â  ðŸ—² result_removed&#xa;Â  Â  Â  Â  Â  Â  Â  Â  ðŸ—²Â grid_removed&#xa;â—‹ remove_result&#xa;Â Â Â Â Â Â Â Â Â Â Â Â Â Â Â Â ðŸ—² result_removed" style="text;strokeColor=none;fillColor=none;align=left;verticalAlign=top;spacingLeft=4;spacingRight=4;overflow=hidden;rotatable=0;points=[[0,0.5],[1,0.5]];portConstraint=eastwest;fontColor=#FF3333;" parent="shywv9QNYz3xRIldoQkV-5" vertex="1">
          <mxGeometry y="190" width="190" height="140" as="geometry" />
        </mxCell>
        <mxCell id="shywv9QNYz3xRIldoQkV-12" value="3DiPluginLayerManager" style="swimlane;fontStyle=0;childLayout=stackLayout;horizontal=1;startSize=26;fillColor=none;horizontalStack=0;resizeParent=1;resizeParentMax=0;resizeLast=0;collapsible=1;marginBottom=0;" parent="1" vertex="1">
          <mxGeometry x="760" y="210" width="200" height="180" as="geometry" />
        </mxCell>
        <mxCell id="shywv9QNYz3xRIldoQkV-13" value="â—‹ load_grid&#xa;Â Â Â Â Â Â Â Â Â Â Â Â Â Â Â Â Â Â Â Â Â Â Â Â Â Â Â Â Â Â Â Â ðŸ—²Â grid_loaded&#xa;â—‹ load_resultÂ &#xa;Â  Â  Â  Â  Â  Â  Â  Â  Â  Â  Â  Â  Â  Â  Â  Â  ðŸ—² result_loaded" style="text;strokeColor=none;fillColor=none;align=left;verticalAlign=top;spacingLeft=4;spacingRight=4;overflow=hidden;rotatable=0;points=[[0,0.5],[1,0.5]];portConstraint=eastwest;" parent="shywv9QNYz3xRIldoQkV-12" vertex="1">
          <mxGeometry y="26" width="200" height="84" as="geometry" />
        </mxCell>
        <mxCell id="shywv9QNYz3xRIldoQkV-14" value="â—‹ unload_grid&#xa;Â  Â  Â  Â  Â  Â  Â  Â  Â  Â  Â  Â  Â  Â Â &#xa;â—‹ unload_result&#xa;Â  Â  Â  Â  Â  Â  Â  Â  Â  Â  Â  Â  Â  Â Â " style="text;strokeColor=none;fillColor=none;align=left;verticalAlign=top;spacingLeft=4;spacingRight=4;overflow=hidden;rotatable=0;points=[[0,0.5],[1,0.5]];portConstraint=eastwest;fontColor=#FF3333;" parent="shywv9QNYz3xRIldoQkV-12" vertex="1">
          <mxGeometry y="110" width="200" height="70" as="geometry" />
        </mxCell>
        <mxCell id="shywv9QNYz3xRIldoQkV-22" value="3DiPluginModelValidator" style="swimlane;fontStyle=0;childLayout=stackLayout;horizontal=1;startSize=26;fillColor=none;horizontalStack=0;resizeParent=1;resizeParentMax=0;resizeLast=0;collapsible=1;marginBottom=0;" parent="1" vertex="1">
          <mxGeometry x="390" y="205" width="200" height="170" as="geometry" />
        </mxCell>
        <mxCell id="shywv9QNYz3xRIldoQkV-23" value="â—‹ validate_grid&#xa;Â  Â  Â  Â  Â  Â  Â  Â  Â  Â  Â  Â  Â  Â  ðŸ—²Â grid_valid&#xa;&#xa;Â  Â  Â  Â  Â  Â  Â  Â  Â  Â  Â  Â  Â  Â  ðŸ—²Â grid_invalid&#xa;&#xa;â—‹ validate_result_grid&#xa;Â  Â  Â  Â  Â  Â  Â  Â  Â  Â  Â  Â  Â  Â  ðŸ—² result_valid&#xa;&#xa;Â  Â  Â  Â  Â  Â  Â  Â  Â  Â  Â  Â  Â  Â  ðŸ—² result_invalid" style="text;strokeColor=none;fillColor=none;align=left;verticalAlign=top;spacingLeft=4;spacingRight=4;overflow=hidden;rotatable=0;points=[[0,0.5],[1,0.5]];portConstraint=eastwest;" parent="shywv9QNYz3xRIldoQkV-22" vertex="1">
          <mxGeometry y="26" width="200" height="144" as="geometry" />
        </mxCell>
        <mxCell id="5HlFLYyAjReFzfFvpWD5-2" value="file" style="endArrow=classic;html=1;rounded=0;exitX=0.997;exitY=0.177;exitDx=0;exitDy=0;entryX=0.009;entryY=0.188;entryDx=0;entryDy=0;exitPerimeter=0;entryPerimeter=0;" parent="1" source="shywv9QNYz3xRIldoQkV-2" target="shywv9QNYz3xRIldoQkV-23" edge="1">
          <mxGeometry width="50" height="50" relative="1" as="geometry">
            <mxPoint x="260" y="440" as="sourcePoint" />
            <mxPoint x="310" y="390" as="targetPoint" />
          </mxGeometry>
        </mxCell>
        <mxCell id="5HlFLYyAjReFzfFvpWD5-3" value="item" style="endArrow=classic;html=1;rounded=0;entryX=-0.01;entryY=0.251;entryDx=0;entryDy=0;exitX=1.012;exitY=0.178;exitDx=0;exitDy=0;exitPerimeter=0;entryPerimeter=0;" parent="1" source="shywv9QNYz3xRIldoQkV-23" target="shywv9QNYz3xRIldoQkV-13" edge="1">
          <mxGeometry width="50" height="50" relative="1" as="geometry">
            <mxPoint x="650" y="440" as="sourcePoint" />
            <mxPoint x="700" y="390" as="targetPoint" />
          </mxGeometry>
        </mxCell>
        <mxCell id="5HlFLYyAjReFzfFvpWD5-4" value="" style="endArrow=classic;html=1;rounded=0;exitX=1.003;exitY=0.361;exitDx=0;exitDy=0;exitPerimeter=0;entryX=-0.003;entryY=0.14;entryDx=0;entryDy=0;entryPerimeter=0;" parent="1" source="shywv9QNYz3xRIldoQkV-13" target="shywv9QNYz3xRIldoQkV-6" edge="1">
          <mxGeometry width="50" height="50" relative="1" as="geometry">
            <mxPoint x="650" y="440" as="sourcePoint" />
            <mxPoint x="700" y="390" as="targetPoint" />
          </mxGeometry>
        </mxCell>
        <mxCell id="5HlFLYyAjReFzfFvpWD5-5" value="item" style="edgeLabel;html=1;align=center;verticalAlign=middle;resizable=0;points=[];" parent="5HlFLYyAjReFzfFvpWD5-4" vertex="1" connectable="0">
          <mxGeometry x="-0.3527" y="2" relative="1" as="geometry">
            <mxPoint as="offset" />
          </mxGeometry>
        </mxCell>
        <mxCell id="5HlFLYyAjReFzfFvpWD5-6" value="SideView" style="swimlane;fontStyle=0;childLayout=stackLayout;horizontal=1;startSize=26;fillColor=none;horizontalStack=0;resizeParent=1;resizeParentMax=0;resizeLast=0;collapsible=1;marginBottom=0;" parent="1" vertex="1">
          <mxGeometry x="1410" y="270" width="160" height="150" as="geometry" />
        </mxCell>
        <mxCell id="5HlFLYyAjReFzfFvpWD5-7" value="â—‹ grid_added&#xa;- result added&#xa;- result changed&#xa;-- grid changed&#xa;Â  Â  Â  Â  Â  Â  Â  Â  Â  Â Â " style="text;strokeColor=none;fillColor=none;align=left;verticalAlign=top;spacingLeft=4;spacingRight=4;overflow=hidden;rotatable=0;points=[[0,0.5],[1,0.5]];portConstraint=eastwest;" parent="5HlFLYyAjReFzfFvpWD5-6" vertex="1">
          <mxGeometry y="26" width="160" height="74" as="geometry" />
        </mxCell>
        <mxCell id="5HlFLYyAjReFzfFvpWD5-8" value="â—‹ grid_removed&#xa;- result removed" style="text;strokeColor=none;fillColor=none;align=left;verticalAlign=top;spacingLeft=4;spacingRight=4;overflow=hidden;rotatable=0;points=[[0,0.5],[1,0.5]];portConstraint=eastwest;fontColor=#FF3333;" parent="5HlFLYyAjReFzfFvpWD5-6" vertex="1">
          <mxGeometry y="100" width="160" height="50" as="geometry" />
        </mxCell>
        <mxCell id="5HlFLYyAjReFzfFvpWD5-12" value="TOOLS" style="text;html=1;strokeColor=none;fillColor=none;align=center;verticalAlign=middle;whiteSpace=wrap;rounded=0;fontSize=23;" parent="1" vertex="1">
          <mxGeometry x="1470" y="205" width="60" height="30" as="geometry" />
        </mxCell>
        <mxCell id="5HlFLYyAjReFzfFvpWD5-13" value="" style="endArrow=classic;html=1;rounded=0;fontSize=23;entryX=0;entryY=0.5;entryDx=0;entryDy=0;exitX=1.018;exitY=0.201;exitDx=0;exitDy=0;exitPerimeter=0;" parent="1" source="shywv9QNYz3xRIldoQkV-6" target="5HlFLYyAjReFzfFvpWD5-7" edge="1">
          <mxGeometry width="50" height="50" relative="1" as="geometry">
            <mxPoint x="1170" y="300" as="sourcePoint" />
            <mxPoint x="1250" y="390" as="targetPoint" />
          </mxGeometry>
        </mxCell>
        <mxCell id="5HlFLYyAjReFzfFvpWD5-14" value="" style="endArrow=classic;html=1;rounded=0;fontSize=23;exitX=1.017;exitY=0.157;exitDx=0;exitDy=0;fillColor=#f8cecc;strokeColor=#b85450;exitPerimeter=0;entryX=0;entryY=0.5;entryDx=0;entryDy=0;" parent="1" source="shywv9QNYz3xRIldoQkV-7" target="5HlFLYyAjReFzfFvpWD5-8" edge="1">
          <mxGeometry width="50" height="50" relative="1" as="geometry">
            <mxPoint x="1200" y="440" as="sourcePoint" />
            <mxPoint x="1250" y="390" as="targetPoint" />
          </mxGeometry>
        </mxCell>
        <mxCell id="5HlFLYyAjReFzfFvpWD5-15" value="Graph" style="swimlane;fontStyle=0;childLayout=stackLayout;horizontal=1;startSize=26;fillColor=none;horizontalStack=0;resizeParent=1;resizeParentMax=0;resizeLast=0;collapsible=1;marginBottom=0;" parent="1" vertex="1">
          <mxGeometry x="1410" y="445" width="160" height="140" as="geometry" />
        </mxCell>
        <mxCell id="5HlFLYyAjReFzfFvpWD5-16" value="â—‹ grid_changed&#xa;â—‹ result_added&#xa;â—‹ result_changed&#xa;&#xa;Â  Â  Â  Â  Â  Â  Â  Â  Â Â " style="text;strokeColor=none;fillColor=none;align=left;verticalAlign=top;spacingLeft=4;spacingRight=4;overflow=hidden;rotatable=0;points=[[0,0.5],[1,0.5]];portConstraint=eastwest;" parent="5HlFLYyAjReFzfFvpWD5-15" vertex="1">
          <mxGeometry y="26" width="160" height="64" as="geometry" />
        </mxCell>
        <mxCell id="_2caxjIK2GwH3lVGI_GL-5" value="â—‹ result_removed" style="text;strokeColor=none;fillColor=none;align=left;verticalAlign=top;spacingLeft=4;spacingRight=4;overflow=hidden;rotatable=0;points=[[0,0.5],[1,0.5]];portConstraint=eastwest;fontColor=#FF0000;" parent="5HlFLYyAjReFzfFvpWD5-15" vertex="1">
          <mxGeometry y="90" width="160" height="50" as="geometry" />
        </mxCell>
        <mxCell id="5HlFLYyAjReFzfFvpWD5-18" value="" style="endArrow=classic;html=1;rounded=0;fontSize=23;exitX=0.998;exitY=0.349;exitDx=0;exitDy=0;entryX=-0.008;entryY=0.18;entryDx=0;entryDy=0;exitPerimeter=0;entryPerimeter=0;" parent="1" source="shywv9QNYz3xRIldoQkV-6" target="5HlFLYyAjReFzfFvpWD5-16" edge="1">
          <mxGeometry width="50" height="50" relative="1" as="geometry">
            <mxPoint x="1210" y="440" as="sourcePoint" />
            <mxPoint x="1260" y="390" as="targetPoint" />
          </mxGeometry>
        </mxCell>
        <mxCell id="5HlFLYyAjReFzfFvpWD5-19" value="" style="endArrow=classic;html=1;rounded=0;fontSize=23;exitX=1.011;exitY=0.013;exitDx=0;exitDy=0;entryX=-0.022;entryY=0.113;entryDx=0;entryDy=0;entryPerimeter=0;fillColor=#f8cecc;strokeColor=#b85450;exitPerimeter=0;fontStyle=1" parent="1" source="shywv9QNYz3xRIldoQkV-3" target="shywv9QNYz3xRIldoQkV-7" edge="1">
          <mxGeometry width="50" height="50" relative="1" as="geometry">
            <mxPoint x="390" y="440" as="sourcePoint" />
            <mxPoint x="440" y="390" as="targetPoint" />
          </mxGeometry>
        </mxCell>
        <mxCell id="5HlFLYyAjReFzfFvpWD5-21" value="3DiPluginModelSerializer" style="swimlane;fontStyle=0;childLayout=stackLayout;horizontal=1;startSize=26;fillColor=none;horizontalStack=0;resizeParent=1;resizeParentMax=0;resizeLast=0;collapsible=1;marginBottom=0;" parent="1" vertex="1">
          <mxGeometry x="50" y="730" width="210" height="90" as="geometry" />
        </mxCell>
        <mxCell id="5HlFLYyAjReFzfFvpWD5-22" value="read()&#xa;write()" style="text;strokeColor=none;fillColor=none;align=left;verticalAlign=top;spacingLeft=4;spacingRight=4;overflow=hidden;rotatable=0;points=[[0,0.5],[1,0.5]];portConstraint=eastwest;" parent="5HlFLYyAjReFzfFvpWD5-21" vertex="1">
          <mxGeometry y="26" width="210" height="64" as="geometry" />
        </mxCell>
        <mxCell id="5HlFLYyAjReFzfFvpWD5-27" value="" style="endArrow=classic;html=1;rounded=0;fontSize=22;exitX=1;exitY=0.063;exitDx=0;exitDy=0;entryX=-0.006;entryY=0.207;entryDx=0;entryDy=0;entryPerimeter=0;exitPerimeter=0;" parent="1" source="5HlFLYyAjReFzfFvpWD5-22" target="shywv9QNYz3xRIldoQkV-13" edge="1">
          <mxGeometry width="50" height="50" relative="1" as="geometry">
            <mxPoint x="650" y="490" as="sourcePoint" />
            <mxPoint x="700" y="440" as="targetPoint" />
          </mxGeometry>
        </mxCell>
        <mxCell id="5HlFLYyAjReFzfFvpWD5-30" value="" style="endArrow=classic;html=1;rounded=0;fontSize=21;exitX=1;exitY=0.5;exitDx=0;exitDy=0;entryX=0;entryY=0.418;entryDx=0;entryDy=0;entryPerimeter=0;" parent="1" source="shywv9QNYz3xRIldoQkV-2" target="shywv9QNYz3xRIldoQkV-23" edge="1">
          <mxGeometry width="50" height="50" relative="1" as="geometry">
            <mxPoint x="650" y="490" as="sourcePoint" />
            <mxPoint x="700" y="440" as="targetPoint" />
          </mxGeometry>
        </mxCell>
        <mxCell id="5HlFLYyAjReFzfFvpWD5-31" value="" style="endArrow=classic;html=1;rounded=0;fontSize=21;exitX=1.005;exitY=0.619;exitDx=0;exitDy=0;exitPerimeter=0;entryX=0;entryY=0.5;entryDx=0;entryDy=0;" parent="1" source="shywv9QNYz3xRIldoQkV-23" target="shywv9QNYz3xRIldoQkV-13" edge="1">
          <mxGeometry width="50" height="50" relative="1" as="geometry">
            <mxPoint x="650" y="490" as="sourcePoint" />
            <mxPoint x="700" y="440" as="targetPoint" />
          </mxGeometry>
        </mxCell>
        <mxCell id="5HlFLYyAjReFzfFvpWD5-32" value="" style="endArrow=classic;html=1;rounded=0;fontSize=21;exitX=1.017;exitY=0.021;exitDx=0;exitDy=0;entryX=0;entryY=0.5;entryDx=0;entryDy=0;exitPerimeter=0;" parent="1" source="5HlFLYyAjReFzfFvpWD5-22" target="shywv9QNYz3xRIldoQkV-13" edge="1">
          <mxGeometry width="50" height="50" relative="1" as="geometry">
            <mxPoint x="650" y="490" as="sourcePoint" />
            <mxPoint x="700" y="440" as="targetPoint" />
          </mxGeometry>
        </mxCell>
        <mxCell id="5HlFLYyAjReFzfFvpWD5-33" value="" style="endArrow=classic;html=1;rounded=0;fontSize=21;exitX=1.009;exitY=0.705;exitDx=0;exitDy=0;exitPerimeter=0;entryX=0;entryY=0.5;entryDx=0;entryDy=0;" parent="1" source="shywv9QNYz3xRIldoQkV-13" target="shywv9QNYz3xRIldoQkV-6" edge="1">
          <mxGeometry width="50" height="50" relative="1" as="geometry">
            <mxPoint x="650" y="490" as="sourcePoint" />
            <mxPoint x="700" y="440" as="targetPoint" />
          </mxGeometry>
        </mxCell>
        <mxCell id="5HlFLYyAjReFzfFvpWD5-34" value="Animation" style="swimlane;fontStyle=0;childLayout=stackLayout;horizontal=1;startSize=26;fillColor=none;horizontalStack=0;resizeParent=1;resizeParentMax=0;resizeLast=0;collapsible=1;marginBottom=0;" parent="1" vertex="1">
          <mxGeometry x="1410" y="610" width="160" height="60" as="geometry" />
        </mxCell>
        <mxCell id="5HlFLYyAjReFzfFvpWD5-35" value="â—‹ results_changed&#xa;Â  Â  Â  Â  Â  Â  Â  Â  Â  Â " style="text;strokeColor=none;fillColor=none;align=left;verticalAlign=top;spacingLeft=4;spacingRight=4;overflow=hidden;rotatable=0;points=[[0,0.5],[1,0.5]];portConstraint=eastwest;" parent="5HlFLYyAjReFzfFvpWD5-34" vertex="1">
          <mxGeometry y="26" width="160" height="34" as="geometry" />
        </mxCell>
        <mxCell id="5HlFLYyAjReFzfFvpWD5-37" value="" style="endArrow=classic;html=1;rounded=0;fontSize=21;exitX=1.008;exitY=0.888;exitDx=0;exitDy=0;exitPerimeter=0;entryX=0.005;entryY=0.701;entryDx=0;entryDy=0;entryPerimeter=0;" parent="1" source="shywv9QNYz3xRIldoQkV-6" target="5HlFLYyAjReFzfFvpWD5-16" edge="1">
          <mxGeometry width="50" height="50" relative="1" as="geometry">
            <mxPoint x="1070" y="490" as="sourcePoint" />
            <mxPoint x="1120" y="440" as="targetPoint" />
          </mxGeometry>
        </mxCell>
        <mxCell id="5HlFLYyAjReFzfFvpWD5-39" value="" style="endArrow=classic;html=1;rounded=0;fontSize=21;exitX=1.003;exitY=0.613;exitDx=0;exitDy=0;exitPerimeter=0;entryX=0;entryY=0.5;entryDx=0;entryDy=0;" parent="1" source="shywv9QNYz3xRIldoQkV-6" target="5HlFLYyAjReFzfFvpWD5-16" edge="1">
          <mxGeometry width="50" height="50" relative="1" as="geometry">
            <mxPoint x="1070" y="490" as="sourcePoint" />
            <mxPoint x="1200" y="510" as="targetPoint" />
          </mxGeometry>
        </mxCell>
        <mxCell id="5HlFLYyAjReFzfFvpWD5-40" value="" style="endArrow=classic;html=1;rounded=0;fontSize=21;exitX=1.008;exitY=0.613;exitDx=0;exitDy=0;exitPerimeter=0;entryX=0;entryY=0.5;entryDx=0;entryDy=0;" parent="1" source="shywv9QNYz3xRIldoQkV-6" target="5HlFLYyAjReFzfFvpWD5-35" edge="1">
          <mxGeometry width="50" height="50" relative="1" as="geometry">
            <mxPoint x="1070" y="490" as="sourcePoint" />
            <mxPoint x="1120" y="440" as="targetPoint" />
          </mxGeometry>
        </mxCell>
        <mxCell id="5HlFLYyAjReFzfFvpWD5-41" value="" style="endArrow=classic;html=1;rounded=0;fontSize=21;exitX=1.003;exitY=0.894;exitDx=0;exitDy=0;exitPerimeter=0;entryX=0;entryY=0.5;entryDx=0;entryDy=0;" parent="1" source="shywv9QNYz3xRIldoQkV-6" target="5HlFLYyAjReFzfFvpWD5-35" edge="1">
          <mxGeometry width="50" height="50" relative="1" as="geometry">
            <mxPoint x="1070" y="490" as="sourcePoint" />
            <mxPoint x="1120" y="440" as="targetPoint" />
          </mxGeometry>
        </mxCell>
        <mxCell id="5HlFLYyAjReFzfFvpWD5-42" value="" style="endArrow=classic;html=1;rounded=0;fontSize=21;exitX=1.006;exitY=0.771;exitDx=0;exitDy=0;exitPerimeter=0;entryX=0;entryY=0.5;entryDx=0;entryDy=0;" parent="1" source="shywv9QNYz3xRIldoQkV-6" target="5HlFLYyAjReFzfFvpWD5-35" edge="1">
          <mxGeometry width="50" height="50" relative="1" as="geometry">
            <mxPoint x="1070" y="490" as="sourcePoint" />
            <mxPoint x="1120" y="440" as="targetPoint" />
          </mxGeometry>
        </mxCell>
        <mxCell id="5HlFLYyAjReFzfFvpWD5-43" value="" style="endArrow=classic;html=1;rounded=0;fontSize=21;exitX=1.016;exitY=0.166;exitDx=0;exitDy=0;exitPerimeter=0;fillColor=#f8cecc;strokeColor=#b85450;entryX=-0.018;entryY=0.387;entryDx=0;entryDy=0;entryPerimeter=0;" parent="1" source="shywv9QNYz3xRIldoQkV-3" target="shywv9QNYz3xRIldoQkV-7" edge="1">
          <mxGeometry width="50" height="50" relative="1" as="geometry">
            <mxPoint x="720" y="480" as="sourcePoint" />
            <mxPoint x="1020" y="515" as="targetPoint" />
          </mxGeometry>
        </mxCell>
        <mxCell id="_2caxjIK2GwH3lVGI_GL-1" value="Generates layers for grids and adds attributes for results" style="ellipse;shape=cloud;whiteSpace=wrap;html=1;" parent="1" vertex="1">
          <mxGeometry x="760" y="96" width="220" height="109" as="geometry" />
        </mxCell>
        <mxCell id="_2caxjIK2GwH3lVGI_GL-2" value="Validates grid and results and emits signals when valid" style="ellipse;shape=cloud;whiteSpace=wrap;html=1;" parent="1" vertex="1">
          <mxGeometry x="380" y="70" width="220" height="109" as="geometry" />
        </mxCell>
        <mxCell id="_2caxjIK2GwH3lVGI_GL-3" value="UI element where user can add/remove grids and results" style="ellipse;shape=cloud;whiteSpace=wrap;html=1;" parent="1" vertex="1">
          <mxGeometry x="-80" y="130" width="455" height="110" as="geometry" />
        </mxCell>
        <mxCell id="_2caxjIK2GwH3lVGI_GL-4" value="Loads a model from the QGIS project and subsequenty loads grids and resuts" style="ellipse;shape=cloud;whiteSpace=wrap;html=1;" parent="1" vertex="1">
          <mxGeometry x="30" y="590" width="270" height="130" as="geometry" />
        </mxCell>
        <mxCell id="_2caxjIK2GwH3lVGI_GL-6" value="" style="endArrow=classic;html=1;rounded=0;fontSize=23;exitX=1;exitY=0.5;exitDx=0;exitDy=0;fillColor=#f8cecc;strokeColor=#b85450;" parent="1" source="shywv9QNYz3xRIldoQkV-7" target="_2caxjIK2GwH3lVGI_GL-5" edge="1">
          <mxGeometry width="50" height="50" relative="1" as="geometry">
            <mxPoint x="1233" y="492" as="sourcePoint" />
            <mxPoint x="1420" y="405" as="targetPoint" />
          </mxGeometry>
        </mxCell>
        <mxCell id="_2caxjIK2GwH3lVGI_GL-7" value="" style="endArrow=classic;html=1;rounded=0;exitX=1.009;exitY=0.179;exitDx=0;exitDy=0;exitPerimeter=0;entryX=-0.008;entryY=0.167;entryDx=0;entryDy=0;entryPerimeter=0;fillColor=#f8cecc;strokeColor=#b85450;" parent="1" source="shywv9QNYz3xRIldoQkV-7" target="shywv9QNYz3xRIldoQkV-14" edge="1">
          <mxGeometry width="50" height="50" relative="1" as="geometry">
            <mxPoint x="950" y="490" as="sourcePoint" />
            <mxPoint x="1000" y="440" as="targetPoint" />
            <Array as="points">
              <mxPoint x="1290" y="680" />
              <mxPoint x="690" y="690" />
              <mxPoint x="710" y="350" />
            </Array>
          </mxGeometry>
        </mxCell>
        <mxCell id="_2caxjIK2GwH3lVGI_GL-8" value="" style="endArrow=classic;html=1;rounded=0;exitX=1;exitY=0.542;exitDx=0;exitDy=0;exitPerimeter=0;entryX=-0.017;entryY=0.631;entryDx=0;entryDy=0;entryPerimeter=0;fillColor=#f8cecc;strokeColor=#b85450;" parent="1" source="shywv9QNYz3xRIldoQkV-7" target="shywv9QNYz3xRIldoQkV-14" edge="1">
          <mxGeometry width="50" height="50" relative="1" as="geometry">
            <mxPoint x="1242" y="495" as="sourcePoint" />
            <mxPoint x="768" y="342" as="targetPoint" />
            <Array as="points">
              <mxPoint x="1260" y="660" />
              <mxPoint x="670" y="670" />
              <mxPoint x="690" y="390" />
            </Array>
          </mxGeometry>
        </mxCell>
        <mxCell id="_2caxjIK2GwH3lVGI_GL-9" value="These remove_grid and remove_result signals are emitted last so tools still have access to the data during removal of grid and results" style="ellipse;shape=cloud;whiteSpace=wrap;html=1;" parent="1" vertex="1">
          <mxGeometry x="670" y="585" width="570" height="140" as="geometry" />
        </mxCell>
        <mxCell id="v-3oO8VQfox21B-r8ohU-4" value="When a grid/result&amp;nbsp; is being loaded, the UI is disabled. After loading or invalidation, the UI is enabled again" style="ellipse;shape=cloud;whiteSpace=wrap;html=1;" parent="1" vertex="1">
          <mxGeometry x="-111" y="228" width="161" height="144" as="geometry" />
        </mxCell>
        <mxCell id="od_VzAi8MUBwzMi8LiXm-1" value="Statistics" style="swimlane;fontStyle=0;childLayout=stackLayout;horizontal=1;startSize=26;fillColor=#f5f5f5;horizontalStack=0;resizeParent=1;resizeParentMax=0;resizeLast=0;collapsible=1;marginBottom=0;fontColor=#333333;strokeColor=#666666;" parent="1" vertex="1">
          <mxGeometry x="1410" y="700" width="160" height="80" as="geometry" />
        </mxCell>
        <mxCell id="od_VzAi8MUBwzMi8LiXm-2" value="â—‹ results_changed&#xa;- result_added&#xa;- result_changed&#xa;Â  Â  Â  Â  Â  Â  Â  Â  Â  Â " style="text;strokeColor=#666666;fillColor=#f5f5f5;align=left;verticalAlign=top;spacingLeft=4;spacingRight=4;overflow=hidden;rotatable=0;points=[[0,0.5],[1,0.5]];portConstraint=eastwest;fontColor=#333333;" parent="od_VzAi8MUBwzMi8LiXm-1" vertex="1">
          <mxGeometry y="26" width="160" height="54" as="geometry" />
        </mxCell>
        <mxCell id="od_VzAi8MUBwzMi8LiXm-8" value="Watershed" style="swimlane;fontStyle=0;childLayout=stackLayout;horizontal=1;startSize=26;horizontalStack=0;resizeParent=1;resizeParentMax=0;resizeLast=0;collapsible=1;marginBottom=0;fillColor=#f5f5f5;fontColor=#333333;strokeColor=#666666;" parent="1" vertex="1">
          <mxGeometry x="1450" y="750" width="160" height="80" as="geometry" />
        </mxCell>
        <mxCell id="od_VzAi8MUBwzMi8LiXm-9" value="â—‹ results_changed&#xa;- result_added&#xa;- result_changed&#xa;Â  Â  Â  Â  Â  Â  Â  Â  Â  Â " style="text;strokeColor=#666666;fillColor=#f5f5f5;align=left;verticalAlign=top;spacingLeft=4;spacingRight=4;overflow=hidden;rotatable=0;points=[[0,0.5],[1,0.5]];portConstraint=eastwest;fontColor=#333333;" parent="od_VzAi8MUBwzMi8LiXm-8" vertex="1">
          <mxGeometry y="26" width="160" height="54" as="geometry" />
        </mxCell>
        <mxCell id="od_VzAi8MUBwzMi8LiXm-10" value="Water Balance" style="swimlane;fontStyle=0;childLayout=stackLayout;horizontal=1;startSize=26;horizontalStack=0;resizeParent=1;resizeParentMax=0;resizeLast=0;collapsible=1;marginBottom=0;fillColor=#f5f5f5;fontColor=#333333;strokeColor=#666666;" parent="1" vertex="1">
          <mxGeometry x="1494" y="790" width="160" height="80" as="geometry" />
        </mxCell>
        <mxCell id="od_VzAi8MUBwzMi8LiXm-11" value="â—‹ results_changed&#xa;- result_added&#xa;- result_changed&#xa;Â  Â  Â  Â  Â  Â  Â  Â  Â  Â " style="text;align=left;verticalAlign=top;spacingLeft=4;spacingRight=4;overflow=hidden;rotatable=0;points=[[0,0.5],[1,0.5]];portConstraint=eastwest;fillColor=#f5f5f5;fontColor=#333333;strokeColor=#666666;" parent="od_VzAi8MUBwzMi8LiXm-10" vertex="1">
          <mxGeometry y="26" width="160" height="54" as="geometry" />
        </mxCell>
        <mxCell id="od_VzAi8MUBwzMi8LiXm-16" value="" style="endArrow=classic;html=1;rounded=0;exitX=1;exitY=0.5;exitDx=0;exitDy=0;" parent="1" source="5HlFLYyAjReFzfFvpWD5-22" edge="1">
          <mxGeometry width="50" height="50" relative="1" as="geometry">
            <mxPoint x="540" y="610" as="sourcePoint" />
            <mxPoint x="1410" y="810" as="targetPoint" />
          </mxGeometry>
        </mxCell>
        <mxCell id="od_VzAi8MUBwzMi8LiXm-17" value="Tools can also read from/write into the project (for&amp;nbsp;&lt;br&gt;example, to reuse result layers" style="ellipse;shape=cloud;whiteSpace=wrap;html=1;" parent="1" vertex="1">
          <mxGeometry x="660" y="725" width="570" height="140" as="geometry" />
        </mxCell>
      </root>
    </mxGraphModel>
  </diagram>
</mxfile>
